<mxfile host="app.diagrams.net" modified="2022-01-22T05:45:30.150Z" agent="5.0 (Macintosh; Intel Mac OS X 11_0) AppleWebKit/537.36 (KHTML, like Gecko) Chrome/96.0.4652.47 Safari/537.36" etag="ms4AIHpyZpEVRuR0xwZp" version="15.9.6" type="github">
  <diagram id="Xaz4YRDGbdrYCMMwThiw" name="第 1 页">
    <mxGraphModel dx="946" dy="623" grid="1" gridSize="10" guides="1" tooltips="1" connect="1" arrows="1" fold="1" page="1" pageScale="1" pageWidth="827" pageHeight="1169" math="0" shadow="0">
      <root>
        <mxCell id="0" />
        <mxCell id="1" parent="0" />
        <mxCell id="LsNtQOAXKsUhf4BI6eis-3" value="&lt;span style=&quot;background-color: rgb(204 , 204 , 204)&quot;&gt;&lt;span style=&quot;color: rgb(0 , 0 , 0) ; font-family: &amp;#34;helvetica&amp;#34; ; font-size: 12px ; font-style: normal ; font-weight: 400 ; letter-spacing: normal ; text-align: center ; text-indent: 0px ; text-transform: none ; word-spacing: 0px ; display: inline ; float: none&quot;&gt;CodeInjection.exe&lt;/span&gt;&lt;br style=&quot;color: rgb(0 , 0 , 0) ; font-family: &amp;#34;helvetica&amp;#34; ; font-size: 12px ; font-style: normal ; font-weight: 400 ; letter-spacing: normal ; text-align: center ; text-indent: 0px ; text-transform: none ; word-spacing: 0px&quot;&gt;&lt;/span&gt;&lt;div style=&quot;color: rgb(0 , 0 , 0) ; font-family: &amp;#34;helvetica&amp;#34; ; font-size: 12px ; font-style: normal ; font-weight: 400 ; letter-spacing: normal ; text-align: center ; text-indent: 0px ; text-transform: none ; word-spacing: 0px&quot;&gt;&lt;span style=&quot;background-color: rgb(204 , 204 , 204)&quot;&gt;进程&lt;/span&gt;&lt;/div&gt;&lt;div style=&quot;color: rgb(0 , 0 , 0) ; font-family: &amp;#34;helvetica&amp;#34; ; font-size: 12px ; font-style: normal ; font-weight: 400 ; letter-spacing: normal ; text-align: center ; text-indent: 0px ; text-transform: none ; word-spacing: 0px&quot;&gt;&lt;span style=&quot;background-color: rgb(204 , 204 , 204)&quot;&gt;&lt;br&gt;&lt;/span&gt;&lt;/div&gt;&lt;div style=&quot;color: rgb(0 , 0 , 0) ; font-family: &amp;#34;helvetica&amp;#34; ; font-size: 12px ; font-style: normal ; font-weight: 400 ; letter-spacing: normal ; text-align: center ; text-indent: 0px ; text-transform: none ; word-spacing: 0px&quot;&gt;&lt;span style=&quot;background-color: rgb(204 , 204 , 204)&quot;&gt;（1）注入数据&amp;amp;代码&lt;/span&gt;&lt;/div&gt;&lt;div style=&quot;color: rgb(0 , 0 , 0) ; font-family: &amp;#34;helvetica&amp;#34; ; font-size: 12px ; font-style: normal ; font-weight: 400 ; letter-spacing: normal ; text-align: center ; text-indent: 0px ; text-transform: none ; word-spacing: 0px&quot;&gt;&lt;span style=&quot;background-color: rgb(204 , 204 , 204)&quot;&gt;&lt;br&gt;&lt;/span&gt;&lt;/div&gt;&lt;div style=&quot;color: rgb(0 , 0 , 0) ; font-family: &amp;#34;helvetica&amp;#34; ; font-size: 12px ; font-style: normal ; font-weight: 400 ; letter-spacing: normal ; text-align: center ; text-indent: 0px ; text-transform: none ; word-spacing: 0px&quot;&gt;&lt;span style=&quot;background-color: rgb(204 , 204 , 204)&quot;&gt;（2）执行&amp;nbsp; &amp;nbsp; &amp;nbsp; &amp;nbsp; &amp;nbsp; &amp;nbsp; &amp;nbsp; &amp;nbsp; &amp;nbsp;&lt;/span&gt;&lt;/div&gt;" style="rounded=0;whiteSpace=wrap;html=1;fillColor=#CCCCCC;" vertex="1" parent="1">
          <mxGeometry x="130" y="140" width="120" height="180" as="geometry" />
        </mxCell>
        <mxCell id="LsNtQOAXKsUhf4BI6eis-6" value="&lt;font face=&quot;helvetica&quot;&gt;target.exe进程&lt;br&gt;&lt;br&gt;&lt;br&gt;&lt;br&gt;&lt;br&gt;&lt;br&gt;&lt;/font&gt;" style="rounded=0;whiteSpace=wrap;html=1;fillColor=#CCCCCC;" vertex="1" parent="1">
          <mxGeometry x="450" y="140" width="120" height="180" as="geometry" />
        </mxCell>
        <mxCell id="LsNtQOAXKsUhf4BI6eis-7" value="&lt;font color=&quot;#ffffff&quot;&gt;ThreadParam&lt;/font&gt;" style="rounded=0;whiteSpace=wrap;html=1;dashed=1;fillColor=#999999;" vertex="1" parent="1">
          <mxGeometry x="460" y="230" width="100" height="30" as="geometry" />
        </mxCell>
        <mxCell id="LsNtQOAXKsUhf4BI6eis-8" value="&lt;font color=&quot;#ffffff&quot;&gt;ThreadProc()&lt;br&gt;{...}&lt;br&gt;&lt;/font&gt;" style="rounded=0;whiteSpace=wrap;html=1;dashed=1;fillColor=#999999;" vertex="1" parent="1">
          <mxGeometry x="460" y="270" width="100" height="30" as="geometry" />
        </mxCell>
        <mxCell id="LsNtQOAXKsUhf4BI6eis-10" value="" style="html=1;shadow=0;dashed=0;align=center;verticalAlign=middle;shape=mxgraph.arrows2.arrow;dy=0;dx=12;notch=9;fontColor=#FFFFFF;fillColor=#CCCCCC;" vertex="1" parent="1">
          <mxGeometry x="270" y="250" width="40" height="20" as="geometry" />
        </mxCell>
        <mxCell id="LsNtQOAXKsUhf4BI6eis-12" value="" style="html=1;shadow=0;dashed=0;align=center;verticalAlign=middle;shape=mxgraph.arrows2.arrow;dy=0;dx=12;notch=9;fontColor=#FFFFFF;fillColor=#CCCCCC;" vertex="1" parent="1">
          <mxGeometry x="310" y="250" width="40" height="20" as="geometry" />
        </mxCell>
        <mxCell id="LsNtQOAXKsUhf4BI6eis-13" value="" style="html=1;shadow=0;dashed=0;align=center;verticalAlign=middle;shape=mxgraph.arrows2.arrow;dy=0;dx=12;notch=9;fontColor=#FFFFFF;fillColor=#CCCCCC;" vertex="1" parent="1">
          <mxGeometry x="350" y="250" width="40" height="20" as="geometry" />
        </mxCell>
        <mxCell id="LsNtQOAXKsUhf4BI6eis-14" value="" style="html=1;shadow=0;dashed=0;align=center;verticalAlign=middle;shape=mxgraph.arrows2.arrow;dy=0;dx=12;notch=9;fontColor=#FFFFFF;fillColor=#CCCCCC;" vertex="1" parent="1">
          <mxGeometry x="390" y="250" width="40" height="20" as="geometry" />
        </mxCell>
      </root>
    </mxGraphModel>
  </diagram>
</mxfile>
